# xmcd CD database file
#
# Track frame offsets:
#	150
#	15885
#	31850
#	42607
#	66107
#
# Disc length: 4440 seconds
#
# Revision: 0
# Processed by: cddbd v1.5PL3 Copyright (c) Steve Scherf et al.
# Submitted via: CDex 1.40Release
#
DISCID=34115605
DTITLE=B-DASH - SECTOR
DYEAR=2003
DGENRE=J-POP
TTITLE0=SECTOR
TTITLE1=フーファイ[Self cover]
TTITLE2=パッチ5
TTITLE3=Get it way[Live ver.]
TTITLE4=data
EXTD=YEAR: 2003
EXTT0=
EXTT1=
EXTT2=
EXTT3=
EXTT4=
PLAYORDER=
